<svg width="32" height="32" viewBox="0 0 32 32" fill="none" xmlns="http://www.w3.org/2000/svg">
<rect width="32" height="32" rx="16" fill="#FF85AB"/>
<path d="M24.942 17.9347C25.9225 16.3299 26.2415 14.3418 25.815 12.4933C24.9038 8.28258 19.8581 6.56197 16.7152 9.38376C16.4663 9.60574 16.2449 9.86166 16 10.1168C15.7551 9.86167 15.5337 9.60574 15.2848 9.38376C12.1419 6.56197 7.09618 8.28258 6.185 12.4933C5.75853 14.3418 6.07752 16.3299 7.05805 17.9347C8.77382 20.7472 11.5404 22.9372 14.2393 24.9219C15.2873 25.6927 16.7127 25.6927 17.7608 24.9219C20.4596 22.9372 23.2262 20.7472 24.942 17.9347Z" fill="white"/>
</svg>
