<svg width="32" height="32" viewBox="0 0 32 32" fill="none" xmlns="http://www.w3.org/2000/svg">
<rect width="32" height="32" rx="16" fill="#0BCB99"/>
<path d="M6.65157 21.8556C6.7614 23.5784 7.88283 24.9131 9.59338 25.1464C10.9925 25.3372 13.0505 25.5 16 25.5C18.9495 25.5 21.0075 25.3372 22.4066 25.1464C24.1172 24.9131 25.2386 23.5784 25.3484 21.8556C25.4318 20.5472 25.5 18.6633 25.5 16C25.5 13.3367 25.4318 11.4528 25.3484 10.1444C25.2386 8.42156 24.1172 7.08689 22.4066 6.85361C21.0075 6.6628 18.9495 6.5 16 6.5C13.0505 6.5 10.9925 6.6628 9.59338 6.85361C7.88283 7.08689 6.7614 8.42156 6.65157 10.1444C6.56816 11.4528 6.5 13.3367 6.5 16C6.5 18.6633 6.56816 20.5472 6.65157 21.8556Z" fill="white"/>
</svg>
