<svg width="32" height="32" viewBox="0 0 32 32" fill="none" xmlns="http://www.w3.org/2000/svg">
<rect width="32" height="32" rx="16" fill="#7A7A7A"/>
<path d="M7.86921 24.1449C6.54229 24.0197 5.68819 22.9194 6.10739 21.6794C6.60942 20.1942 7.58588 17.8639 9.48508 14.4172C11.5299 10.7062 13.2182 8.28933 14.3634 6.82819C15.2289 5.72394 16.7711 5.72394 17.6366 6.82819C18.7818 8.28933 20.4701 10.7062 22.5149 14.4172C24.4141 17.8639 25.3906 20.1942 25.8926 21.6794C26.3118 22.9194 25.4577 24.0197 24.1308 24.1449C22.3396 24.3138 19.5585 24.5 16 24.5C12.4415 24.5 9.66043 24.3138 7.86921 24.1449Z" fill="white"/>
</svg>
