<svg width="32" height="32" viewBox="0 0 32 32" fill="none" xmlns="http://www.w3.org/2000/svg">
<rect width="32" height="32" rx="16" fill="#9B5DE5"/>
<path d="M16.7228 25.9768C16.4934 26.6744 15.5066 26.6744 15.2772 25.9768L13.9474 21.9334C13.3434 20.097 11.903 18.6566 10.0666 18.0526L6.02319 16.7228C5.3256 16.4934 5.3256 15.5066 6.02319 15.2772L10.0666 13.9474C11.903 13.3434 13.3434 11.903 13.9474 10.0666L15.2772 6.02319C15.5066 5.3256 16.4934 5.3256 16.7228 6.02319L18.0526 10.0666C18.6566 11.903 20.097 13.3434 21.9334 13.9474L25.9768 15.2772C26.6744 15.5066 26.6744 16.4934 25.9768 16.7228L21.9334 18.0526C20.097 18.6566 18.6566 20.097 18.0526 21.9334L16.7228 25.9768Z" fill="white"/>
</svg>
