<svg width="94" height="48" viewBox="0 0 94 48" fill="none" xmlns="http://www.w3.org/2000/svg">
<path d="M11.9243 25.5674C11.8949 26.1645 13.2496 37.8663 13.3085 38.7618C13.4558 40.2245 14.1037 41.7171 15.1932 41.7768C16.283 41.7469 16.9309 40.2245 17.078 38.7618C17.1664 37.9559 18.5211 25.866 18.4623 25.5077C18.1972 19.7165 12.2777 19.5076 11.9243 25.5674Z" fill="white"/>
<path d="M19.7875 12.5219C19.9937 12.7308 20.3471 12.7308 20.5533 12.5219L21.6723 11.3875C21.8785 11.1786 21.8785 10.8203 21.6723 10.6114L21.6429 10.5815C21.4368 10.3726 21.0834 10.3726 20.8773 10.5815L19.7581 11.7159C19.552 11.9248 19.552 12.2831 19.7581 12.492L19.7875 12.5219Z" fill="white"/>
<path d="M23.9111 14.6416H21.2606C20.9661 14.6416 20.7305 14.8805 20.7305 15.1789V15.2386C20.7305 15.5372 20.9661 15.776 21.2606 15.776H23.9111C24.2057 15.776 24.4412 15.5372 24.4412 15.2386V15.1789C24.4412 14.8805 24.2057 14.6416 23.9111 14.6416Z" fill="white"/>
<path d="M20.3482 19.0893C20.1421 18.8804 19.7886 18.8804 19.5825 19.0893L19.5531 19.1192C19.3469 19.3282 19.3469 19.6864 19.5531 19.8953L20.6721 21.0297C20.8783 21.2387 21.2317 21.2387 21.4379 21.0297L21.4673 20.9999C21.6734 20.7909 21.6734 20.4327 21.4673 20.2237L20.3482 19.0893Z" fill="white"/>
<path d="M10.8948 19.0893C10.6888 18.8804 10.3354 18.8804 10.1292 19.0893L9.01007 20.2237C8.80393 20.4327 8.80393 20.7909 9.01007 20.9999L9.03951 21.0297C9.24568 21.2387 9.59908 21.2387 9.80525 21.0297L10.9243 19.8953C11.1305 19.6864 11.1305 19.3282 10.9243 19.1192L10.8948 19.0893Z" fill="white"/>
<path d="M9.77514 15.2387V15.1789C9.77514 14.8805 9.5396 14.6416 9.24503 14.6416H6.59455C6.30005 14.6416 6.06445 14.8805 6.06445 15.1789V15.2387C6.06445 15.5372 6.30005 15.776 6.59455 15.776H9.24503C9.5396 15.8058 9.77514 15.567 9.77514 15.2387Z" fill="white"/>
<path d="M9.92215 12.5219C10.1283 12.7308 10.4817 12.7308 10.6879 12.5219L10.7173 12.492C10.9234 12.2831 10.9234 11.9248 10.7173 11.7159L9.59821 10.5815C9.39204 10.3726 9.03864 10.3726 8.8325 10.5815L8.80304 10.6114C8.5969 10.8203 8.5969 11.1786 8.80304 11.3875L9.92215 12.5219Z" fill="white"/>
<path d="M15.1942 10.1636H15.2531C15.5476 10.1636 15.7832 9.92484 15.7832 9.62632V6.73068C15.7832 6.43217 15.5476 6.19336 15.2531 6.19336H15.1942C14.8996 6.19336 14.6641 6.43217 14.6641 6.73068V9.62632C14.6641 9.92484 14.8996 10.1636 15.1942 10.1636Z" fill="white"/>
<path d="M15.2228 19.925C17.5161 19.925 19.3752 18.0406 19.3752 15.716C19.3752 13.3913 17.5161 11.5068 15.2228 11.5068C12.9294 11.5068 11.0703 13.3913 11.0703 15.716C11.0703 18.0406 12.9294 19.925 15.2228 19.925Z" fill="white"/>
<path d="M36.1338 21.1494C30.4499 21.2688 26.5625 25.8361 26.5625 31.5378C26.5625 37.3886 30.4793 41.7171 36.1338 41.7769H43.1429V39.1201H36.2516C32.158 39.1201 29.5075 35.7468 29.5075 31.478C29.5075 27.2391 32.0403 23.7167 36.281 23.6868H43.1429V21.1494H36.1338Z" fill="white"/>
<path d="M85.1376 21.0894V37.3883L74.8889 21.9252C74.5356 21.4178 73.9466 21.1193 73.3282 21.1193C72.2973 21.1193 71.4434 21.9849 71.4434 23.0298V41.8063H74.241V25.4477L84.5189 40.9705C84.8726 41.4779 85.4323 41.7765 86.0502 41.7765C87.0809 41.7765 87.9351 40.9407 87.9351 39.8659V21.0894H85.1376Z" fill="white"/>
<path d="M64.9054 39.3286H49.6798L45.5273 41.7764H69.0579L64.9054 39.3286Z" fill="white"/>
<path d="M57.3074 25.5969V21.1191L45.5273 41.7764L49.6798 39.3285L57.3074 25.5969Z" fill="white"/>
<path d="M57.3066 25.5969L64.9047 39.3286L69.0571 41.7764L57.3066 21.1191V25.5969Z" fill="white"/>
</svg>
