<svg width="104" height="52" viewBox="0 0 104 52" fill="none" xmlns="http://www.w3.org/2000/svg">
<path d="M13.1936 27.698C13.1611 28.3447 14.6599 41.0217 14.725 41.9918C14.888 43.5764 15.6048 45.1934 16.8103 45.2581C18.016 45.2257 18.7328 43.5764 18.8956 41.9918C18.9934 41.1187 20.4922 28.0213 20.4271 27.6332C20.1338 21.3595 13.5846 21.1331 13.1936 27.698Z" fill="#0057A5"/>
<path d="M21.8933 13.5655C22.1214 13.7919 22.5124 13.7919 22.7405 13.5655L23.9786 12.3366C24.2067 12.1103 24.2067 11.7222 23.9786 11.4958L23.946 11.4635C23.718 11.2371 23.327 11.2371 23.099 11.4635L21.8607 12.6924C21.6327 12.9187 21.6327 13.3068 21.8607 13.5332L21.8933 13.5655Z" fill="#E33A8F"/>
<path d="M26.455 15.8615H23.5225C23.1967 15.8615 22.936 16.1203 22.936 16.4436V16.5083C22.936 16.8317 23.1967 17.0904 23.5225 17.0904H26.455C26.7809 17.0904 27.0415 16.8317 27.0415 16.5083V16.4436C27.0415 16.1203 26.7809 15.8615 26.455 15.8615Z" fill="#5CA038"/>
<path d="M22.5124 20.6801C22.2844 20.4537 21.8933 20.4537 21.6653 20.6801L21.6327 20.7124C21.4046 20.9388 21.4046 21.3269 21.6327 21.5533L22.8708 22.7821C23.0989 23.0085 23.4899 23.0085 23.718 22.7821L23.7506 22.7498C23.9786 22.5234 23.9786 22.1354 23.7506 21.9089L22.5124 20.6801Z" fill="#E33A8F"/>
<path d="M12.0532 20.6801C11.8252 20.4537 11.4342 20.4537 11.2061 20.6801L9.96793 21.9089C9.73986 22.1354 9.73986 22.5234 9.96793 22.7498L10.0005 22.7821C10.2286 23.0085 10.6196 23.0085 10.8477 22.7821L12.0858 21.5533C12.3139 21.3269 12.3139 20.9388 12.0858 20.7124L12.0532 20.6801Z" fill="#E33A8F"/>
<path d="M10.8151 16.5083V16.4436C10.8151 16.1203 10.5545 15.8615 10.2286 15.8615H7.29615C6.97032 15.8615 6.70966 16.1203 6.70966 16.4436V16.5083C6.70966 16.8317 6.97032 17.0904 7.29615 17.0904H10.2286C10.5545 17.1227 10.8151 16.864 10.8151 16.5083Z" fill="#5CA038"/>
<path d="M10.978 13.5655C11.2061 13.7919 11.5971 13.7919 11.8252 13.5655L11.8577 13.5332C12.0858 13.3068 12.0858 12.9187 11.8577 12.6924L10.6196 11.4635C10.3915 11.2371 10.0005 11.2371 9.77243 11.4635L9.73984 11.4958C9.51177 11.7222 9.51177 12.1103 9.73984 12.3366L10.978 13.5655Z" fill="#E33A8F"/>
<path d="M16.8104 11.0108H16.8756C17.2014 11.0108 17.4621 10.7521 17.4621 10.4287V7.29179C17.4621 6.9684 17.2014 6.70969 16.8756 6.70969H16.8104C16.4845 6.70969 16.2239 6.9684 16.2239 7.29179V10.4287C16.2239 10.7521 16.4845 11.0108 16.8104 11.0108Z" fill="#5CA038"/>
<path d="M16.8429 21.5856C19.3802 21.5856 21.4371 19.5441 21.4371 17.0258C21.4371 14.5074 19.3802 12.4659 16.8429 12.4659C14.3056 12.4659 12.2487 14.5074 12.2487 17.0258C12.2487 19.5441 14.3056 21.5856 16.8429 21.5856Z" fill="#0057A5"/>
<path d="M39.9769 22.9118C33.6884 23.0411 29.3874 27.989 29.3874 34.1659C29.3874 40.5043 33.7209 45.1935 39.9769 45.2582H47.7317V42.38H40.1072C35.5782 42.38 32.6457 38.7256 32.6457 34.1011C32.6457 29.509 35.4479 25.693 40.1398 25.6606H47.7317V22.9118H39.9769Z" fill="#0057A5"/>
<path d="M94.1952 22.8469V40.5041L82.8562 23.7524C82.4653 23.2027 81.8136 22.8793 81.1294 22.8793C79.9889 22.8793 79.0441 23.8171 79.0441 24.949V45.2903H82.1394V27.5684L93.5107 44.3848C93.902 44.9345 94.5212 45.258 95.2049 45.258C96.3452 45.258 97.2903 44.3525 97.2903 43.1882V22.8469H94.1952Z" fill="#0057A5"/>
<path d="M71.8105 42.606H54.965L50.3708 45.2578H76.4047L71.8105 42.606Z" fill="#DB2590"/>
<path d="M63.4041 27.7303V22.8793L50.3708 45.258L54.965 42.6062L63.4041 27.7303Z" fill="#0057A5"/>
<path d="M63.4041 27.7301L71.8105 42.6061L76.4047 45.2579L63.4041 22.8792V27.7301Z" fill="#8DC63F"/>
</svg>
